<?xml version="1.0" encoding="us-ascii" standalone="no"?><svg xmlns="http://www.w3.org/2000/svg" xmlns:xlink="http://www.w3.org/1999/xlink" contentStyleType="text/css" height="912px" preserveAspectRatio="none" style="width:2134px;height:912px;background:#FFFFFF;" version="1.1" viewBox="0 0 2134 912" width="2134px" zoomAndPan="magnify"><defs/><g><text fill="#000000" font-family="sans-serif" font-size="14" font-weight="bold" lengthAdjust="spacing" textLength="341" x="889.5" y="24.5332">Communication FSM State Diagram with API Calls</text><g id="idle"><rect fill="#FFFFFF" height="50" rx="12.5" ry="12.5" style="stroke:#000000;stroke-width:0.5;" width="96" x="1076" y="171.1094"/><line style="stroke:#000000;stroke-width:0.5;" x1="1076" x2="1172" y1="197.4609" y2="197.4609"/><text fill="#000000" font-family="sans-serif" font-size="13" lengthAdjust="spacing" textLength="76" x="1086" y="189.6045">COMM_IDLE</text></g><g id="connecting"><rect fill="#90EE90" height="50" rx="12.5" ry="12.5" style="stroke:#006400;stroke-width:0.5;" width="152" x="533" y="344.6094"/><line style="stroke:#006400;stroke-width:0.5;" x1="533" x2="685" y1="370.9609" y2="370.9609"/><text fill="#000000" font-family="sans-serif" font-size="13" lengthAdjust="spacing" textLength="132" x="543" y="363.1045">COMM_CONNECTING</text></g><g id="connected"><rect fill="#90EE90" height="50" rx="12.5" ry="12.5" style="stroke:#006400;stroke-width:0.5;" width="148" x="684" y="472.6094"/><line style="stroke:#006400;stroke-width:0.5;" x1="684" x2="832" y1="498.9609" y2="498.9609"/><text fill="#000000" font-family="sans-serif" font-size="13" lengthAdjust="spacing" textLength="128" x="694" y="491.1045">COMM_CONNECTED</text></g><g id="transferring"><rect fill="#90EE90" height="50" rx="12.5" ry="12.5" style="stroke:#006400;stroke-width:0.5;" width="168" x="863" y="600.6094"/><line style="stroke:#006400;stroke-width:0.5;" x1="863" x2="1031" y1="626.9609" y2="626.9609"/><text fill="#000000" font-family="sans-serif" font-size="13" lengthAdjust="spacing" textLength="148" x="873" y="619.1045">COMM_TRANSFERRING</text></g><g id="disconnecting"><rect fill="#90EE90" height="50" rx="12.5" ry="12.5" style="stroke:#006400;stroke-width:0.5;" width="173" x="945.5" y="856.6094"/><line style="stroke:#006400;stroke-width:0.5;" x1="945.5" x2="1118.5" y1="882.9609" y2="882.9609"/><text fill="#000000" font-family="sans-serif" font-size="13" lengthAdjust="spacing" textLength="153" x="955.5" y="875.1045">COMM_DISCONNECTING</text></g><g id="error"><rect fill="#F08080" height="50" rx="12.5" ry="12.5" style="stroke:#8B0000;stroke-width:0.5;" width="114" x="484" y="728.6094"/><line style="stroke:#8B0000;stroke-width:0.5;" x1="484" x2="598" y1="754.9609" y2="754.9609"/><text fill="#000000" font-family="sans-serif" font-size="13" lengthAdjust="spacing" textLength="94" x="494" y="747.1045">COMM_ERROR</text></g><ellipse cx="1124" cy="54.6094" fill="#222222" rx="10" ry="10" style="stroke:#222222;stroke-width:1.0;"/><g id="elem_GMN26"><path d="M1563.5,125.6094 L1563.5,266.4219 L1758.5,266.4219 L1758.5,135.6094 L1748.5,125.6094 L1563.5,125.6094 " fill="#FEFFDD" style="stroke:#181818;stroke-width:0.5;"/><path d="M1748.5,125.6094 L1748.5,135.6094 L1758.5,135.6094 L1748.5,125.6094 " fill="#FEFFDD" style="stroke:#181818;stroke-width:1.0;"/><text fill="#000000" font-family="sans-serif" font-size="13" font-weight="bold" lengthAdjust="spacing" textLength="162" x="1569.5" y="144.1045">Communication FSM API:</text><text fill="#000000" font-family="sans-serif" font-size="13" lengthAdjust="spacing" textLength="105" x="1569.5" y="160.4561">&#8226; comm_fsm_init()</text><text fill="#000000" font-family="sans-serif" font-size="13" lengthAdjust="spacing" textLength="174" x="1569.5" y="176.8076">&#8226; comm_fsm_dispatch_event()</text><text fill="#000000" font-family="sans-serif" font-size="13" lengthAdjust="spacing" textLength="165" x="1569.5" y="193.1592">&#8226; comm_fsm_is_connected()</text><text fill="#000000" font-family="sans-serif" font-size="13" lengthAdjust="spacing" textLength="164" x="1569.5" y="209.5107">&#8226; comm_fsm_start_transfer()</text><text fill="#000000" font-family="sans-serif" font-size="13" lengthAdjust="spacing" textLength="139" x="1569.5" y="225.8623">&#8226; comm_fsm_set_error()</text><text fill="#000000" font-family="sans-serif" font-size="13" lengthAdjust="spacing" textLength="171" x="1569.5" y="242.2139">&#8226; comm_fsm_get_error_msg()</text><text fill="#000000" font-family="sans-serif" font-size="13" lengthAdjust="spacing" textLength="117" x="1569.5" y="258.5654">&#8226; comm_fsm_reset()</text></g><g id="elem_GMN29"><path d="M1551,348.1094 L1551,390.8125 L2127,390.8125 L2127,358.1094 L2117,348.1094 L1551,348.1094 " fill="#FEFFDD" style="stroke:#181818;stroke-width:0.5;"/><path d="M2117,348.1094 L2117,358.1094 L2127,358.1094 L2117,348.1094 " fill="#FEFFDD" style="stroke:#181818;stroke-width:1.0;"/><text fill="#000000" font-family="sans-serif" font-size="13" font-weight="bold" lengthAdjust="spacing" textLength="67" x="1557" y="366.6045">Activation:</text><text fill="#000000" font-family="sans-serif" font-size="13" lengthAdjust="spacing" textLength="71" x="1628" y="366.6045">Activated by</text><a href="system_coordinator_state_diagram_with_api.puml" target="_top" title="system_coordinator_state_diagram_with_api.puml" xlink:actuate="onRequest" xlink:href="system_coordinator_state_diagram_with_api.puml" xlink:show="new" xlink:title="system_coordinator_state_diagram_with_api.puml" xlink:type="simple"><text fill="#0000FF" font-family="sans-serif" font-size="13" lengthAdjust="spacing" text-decoration="underline" textLength="227" x="1703" y="366.6045">SYS_RECORDING_AND_UPLOADING</text></a><text fill="#000000" font-family="sans-serif" font-size="13" lengthAdjust="spacing" textLength="21" x="1934" y="366.6045">and</text><a href="system_coordinator_state_diagram_with_api.puml" target="_top" title="system_coordinator_state_diagram_with_api.puml" xlink:actuate="onRequest" xlink:href="system_coordinator_state_diagram_with_api.puml" xlink:show="new" xlink:title="system_coordinator_state_diagram_with_api.puml" xlink:type="simple"><text fill="#0000FF" font-family="sans-serif" font-size="13" lengthAdjust="spacing" text-decoration="underline" textLength="109" x="1959" y="366.6045">SYS_UPLOADING</text></a><text fill="#000000" font-family="sans-serif" font-size="13" lengthAdjust="spacing" textLength="40" x="2072" y="366.6045">states.</text><text fill="#000000" font-family="sans-serif" font-size="13" font-weight="bold" lengthAdjust="spacing" textLength="87" x="1557" y="382.9561">Back to main:</text><text fill="#000000" font-family="sans-serif" font-size="13" lengthAdjust="spacing" textLength="4" x="1644" y="382.9561">&#160;</text><a href="system_coordinator_state_diagram_with_api.puml" target="_top" title="system_coordinator_state_diagram_with_api.puml" xlink:actuate="onRequest" xlink:href="system_coordinator_state_diagram_with_api.puml" xlink:show="new" xlink:title="system_coordinator_state_diagram_with_api.puml" xlink:type="simple"><text fill="#0000FF" font-family="sans-serif" font-size="13" lengthAdjust="spacing" text-decoration="underline" textLength="147" x="1648" y="382.9561">System Coordinator FSM</text></a></g><!--link *start* to idle--><g id="link_*start*_idle"><path d="M1124,64.7594 C1124,86.0394 1124,133.3994 1124,164.8594 " fill="none" id="*start*-to-idle" style="stroke:#181818;stroke-width:1.0;"/><polygon fill="#181818" points="1124,170.8594,1128,161.8594,1124,165.8594,1120,161.8594,1124,170.8594" style="stroke:#181818;stroke-width:1.0;"/></g><!--link idle to connecting--><g id="link_idle_connecting"><path d="M1075.55,213.2394 C984.66,243.5094 793.8227,307.0639 687.1427,342.5839 " fill="none" id="idle-to-connecting" style="stroke:#181818;stroke-width:1.0;"/><polygon fill="#181818" points="681.45,344.4794,691.2527,345.4314,686.1939,342.8998,688.7255,337.841,681.45,344.4794" style="stroke:#181818;stroke-width:1.0;"/><text fill="#000000" font-family="sans-serif" font-size="13" lengthAdjust="spacing" textLength="142" x="822" y="311.1045">COMM_EVT_CONNECT</text></g><!--link idle to error--><g id="link_idle_error"><path d="M1075.96,199.3194 C861.97,209.8094 6,258.6394 6,368.6094 C6,368.6094 6,368.6094 6,626.6094 C6,723.9994 340.1539,745.9723 478.0039,750.9623 " fill="none" id="idle-to-error" style="stroke:#181818;stroke-width:1.0;"/><polygon fill="#181818" points="484,751.1794,475.1506,746.8564,479.0033,750.9985,474.8612,754.8512,484,751.1794" style="stroke:#181818;stroke-width:1.0;"/><text fill="#000000" font-family="sans-serif" font-size="13" lengthAdjust="spacing" textLength="126" x="7" y="503.1045">COMM_EVT_ERROR</text></g><!--link connecting to connected--><g id="link_connecting_connected"><path d="M637.73,394.8994 C664.2,417.2894 698.6684,446.4352 725.0284,468.7252 " fill="none" id="connecting-to-connected" style="stroke:#181818;stroke-width:1.0;"/><polygon fill="#181818" points="729.61,472.5994,725.3204,463.7337,725.792,469.3709,720.1549,469.8425,729.61,472.5994" style="stroke:#181818;stroke-width:1.0;"/><text fill="#000000" font-family="sans-serif" font-size="13" lengthAdjust="spacing" textLength="160" x="694" y="439.1045">COMM_EVT_CONNECTED</text></g><!--link connecting to error--><g id="link_connecting_error"><path d="M599.49,394.8794 C586.47,429.3394 563.49,494.7094 553,552.6094 C541.65,615.2494 540.3683,684.5295 540.5683,722.3795 " fill="none" id="connecting-to-error" style="stroke:#181818;stroke-width:1.0;"/><polygon fill="#181818" points="540.6,728.3794,544.5524,719.3584,540.5736,723.3794,536.5525,719.4006,540.6,728.3794" style="stroke:#181818;stroke-width:1.0;"/><text fill="#000000" font-family="sans-serif" font-size="13" lengthAdjust="spacing" textLength="136" x="554" y="567.1045">COMM_EVT_TIMEOUT</text></g><!--link connecting to error--><g id="link_connecting_error"><path d="M532.82,374.5594 C427.33,384.8494 243.08,421.6394 184,552.6094 C126.45,680.1794 362.9383,729.0151 477.7383,745.1351 " fill="none" id="connecting-to-error-1" style="stroke:#181818;stroke-width:1.0;"/><polygon fill="#181818" points="483.68,745.9694,475.3237,740.7568,478.7286,745.2741,474.2112,748.679,483.68,745.9694" style="stroke:#181818;stroke-width:1.0;"/><text fill="#000000" font-family="sans-serif" font-size="13" lengthAdjust="spacing" textLength="126" x="185" y="567.1045">COMM_EVT_ERROR</text></g><!--link error to connecting--><g id="link_error_connecting"><path d="M502.03,728.3294 C449.84,692.4894 367.25,622.1394 399,552.6094 C432.47,479.3194 506.445,427.2013 557.445,397.7313 " fill="none" id="error-to-connecting" style="stroke:#181818;stroke-width:1.0;"/><polygon fill="#181818" points="562.64,394.7294,552.8462,395.7689,558.3108,397.231,556.8487,402.6956,562.64,394.7294" style="stroke:#181818;stroke-width:1.0;"/><text fill="#000000" font-family="sans-serif" font-size="13" lengthAdjust="spacing" textLength="142" x="400" y="567.1045">COMM_EVT_CONNECT</text></g><!--link connecting to disconnecting--><g id="link_connecting_disconnecting"><path d="M685.08,375.2394 C840.58,389.4694 1189.83,447.2294 1305,680.6094 C1349.2,770.1794 1220.0449,827.2155 1124.4249,856.6255 " fill="none" id="connecting-to-disconnecting" style="stroke:#181818;stroke-width:1.0;"/><polygon fill="#181818" points="1118.69,858.3894,1128.4682,859.5668,1123.4691,856.9195,1126.1164,851.9203,1118.69,858.3894" style="stroke:#181818;stroke-width:1.0;"/><text fill="#000000" font-family="sans-serif" font-size="13" lengthAdjust="spacing" textLength="163" x="1289" y="631.1045">COMM_EVT_DISCONNECT</text></g><!--link connected to transferring--><g id="link_connected_transferring"><path d="M832.33,510.5594 C861.31,518.4094 893.02,531.3394 916,552.6094 C929.58,565.1794 935.8361,578.949 940.2661,594.499 " fill="none" id="connected-to-transferring" style="stroke:#181818;stroke-width:1.0;"/><polygon fill="#181818" points="941.91,600.2694,943.2911,590.5178,940.5401,595.4607,935.5972,592.7097,941.91,600.2694" style="stroke:#181818;stroke-width:1.0;"/><text fill="#000000" font-family="sans-serif" font-size="13" lengthAdjust="spacing" textLength="166" x="931" y="567.1045">COMM_EVT_DATA_READY</text></g><!--link transferring to connected--><g id="link_transferring_connected"><path d="M862.97,606.4294 C813.13,594.7994 758.27,580.1594 751,570.6094 C740.73,557.1194 741.47,543.5754 746.14,528.3554 " fill="none" id="transferring-to-connected" style="stroke:#181818;stroke-width:1.0;"/><polygon fill="#181818" points="747.9,522.6194,741.4359,530.0501,746.4333,527.3994,749.084,532.3968,747.9,522.6194" style="stroke:#181818;stroke-width:1.0;"/><text fill="#000000" font-family="sans-serif" font-size="13" lengthAdjust="spacing" textLength="155" x="752" y="567.1045">COMM_EVT_DATA_SENT</text></g><!--link connected to disconnecting--><g id="link_connected_disconnecting"><path d="M832.32,499.6894 C923.4,502.7194 1070.08,513.6894 1106,552.6094 C1140.12,589.5794 1136.4,731.4094 1119,778.6094 C1107.57,809.6194 1086.4702,833.5521 1066.0102,852.3321 " fill="none" id="connected-to-disconnecting" style="stroke:#181818;stroke-width:1.0;"/><polygon fill="#181818" points="1061.59,856.3894,1070.9252,853.2503,1065.2735,853.0083,1065.5155,847.3566,1061.59,856.3894" style="stroke:#181818;stroke-width:1.0;"/><text fill="#000000" font-family="sans-serif" font-size="13" lengthAdjust="spacing" textLength="163" x="1133" y="695.1045">COMM_EVT_DISCONNECT</text></g><!--link connected to error--><g id="link_connected_error"><path d="M737.19,522.9594 C695.72,571.5094 607.0675,675.2777 565.6375,723.7677 " fill="none" id="connected-to-error" style="stroke:#181818;stroke-width:1.0;"/><polygon fill="#181818" points="561.74,728.3294,570.6274,724.0852,564.9879,724.528,564.5452,718.8885,561.74,728.3294" style="stroke:#181818;stroke-width:1.0;"/><text fill="#000000" font-family="sans-serif" font-size="13" lengthAdjust="spacing" textLength="126" x="669" y="631.1045">COMM_EVT_ERROR</text></g><!--link transferring to disconnecting--><g id="link_transferring_disconnecting"><path d="M942.83,650.6494 C938.52,681.3694 934.41,735.6894 950,778.6094 C961.09,809.1494 981.1042,833.1901 1000.3842,852.1701 " fill="none" id="transferring-to-disconnecting" style="stroke:#181818;stroke-width:1.0;"/><polygon fill="#181818" points="1004.66,856.3794,1001.0525,847.215,1001.0969,852.8717,995.4402,852.916,1004.66,856.3794" style="stroke:#181818;stroke-width:1.0;"/><text fill="#000000" font-family="sans-serif" font-size="13" lengthAdjust="spacing" textLength="163" x="951" y="759.1045">COMM_EVT_DISCONNECT</text></g><!--link transferring to error--><g id="link_transferring_error"><path d="M862.66,650.2794 C832.85,659.1494 799.23,669.7294 769,680.6094 C749.51,687.6294 745.53,691.6994 726,698.6094 C683.74,713.5694 640.8188,726.0813 603.9888,736.1213 " fill="none" id="transferring-to-error" style="stroke:#181818;stroke-width:1.0;"/><polygon fill="#181818" points="598.2,737.6994,607.9352,739.1915,603.024,736.3843,605.8311,731.4731,598.2,737.6994" style="stroke:#181818;stroke-width:1.0;"/><text fill="#000000" font-family="sans-serif" font-size="13" lengthAdjust="spacing" textLength="126" x="770" y="695.1045">COMM_EVT_ERROR</text></g><!--link disconnecting to idle--><g id="link_disconnecting_idle"><path d="M1118.56,874.8894 C1253.32,863.5794 1498,832.3394 1498,754.6094 C1498,368.6094 1498,368.6094 1498,368.6094 C1498,226.8194 1279.1351,202.0415 1178.1251,197.9615 " fill="none" id="disconnecting-to-idle" style="stroke:#181818;stroke-width:1.0;"/><polygon fill="#181818" points="1172.13,197.7194,1180.9612,202.0793,1177.1259,197.9212,1181.2841,194.0859,1172.13,197.7194" style="stroke:#181818;stroke-width:1.0;"/><text fill="#000000" font-family="sans-serif" font-size="13" lengthAdjust="spacing" textLength="181" x="1499" y="567.1045">COMM_EVT_DISCONNECTED</text></g><!--link disconnecting to error--><g id="link_disconnecting_error"><path d="M945.42,867.9894 C893.49,859.1494 826.57,845.5294 769,826.6094 C750.86,820.6494 747.9,815.2494 730,808.6094 C686.65,792.5194 642.0488,779.8418 604.1988,770.0518 " fill="none" id="disconnecting-to-error" style="stroke:#181818;stroke-width:1.0;"/><polygon fill="#181818" points="598.39,768.5494,606.1016,774.6756,603.2307,769.8014,608.1049,766.9305,598.39,768.5494" style="stroke:#181818;stroke-width:1.0;"/><text fill="#000000" font-family="sans-serif" font-size="13" lengthAdjust="spacing" textLength="126" x="770" y="823.1045">COMM_EVT_ERROR</text></g><!--link error to disconnecting--><g id="link_error_disconnecting"><path d="M539.69,778.8694 C540.24,794.7894 543.86,814.7894 557,826.6094 C585.25,852.0194 810.1499,868.3644 939.3199,875.8044 " fill="none" id="error-to-disconnecting" style="stroke:#181818;stroke-width:1.0;"/><polygon fill="#181818" points="945.31,876.1494,936.5549,871.6385,940.3183,875.8619,936.0949,879.6252,945.31,876.1494" style="stroke:#181818;stroke-width:1.0;"/><text fill="#000000" font-family="sans-serif" font-size="13" lengthAdjust="spacing" textLength="163" x="558" y="823.1045">COMM_EVT_DISCONNECT</text></g><!--link idle to GMN26--><g id="link_idle_GMN26"><path d="M1172.25,196.1094 C1302.55,196.1094 1432.85,196.1094 1563.15,196.1094 " fill="none" id="idle-GMN26" style="stroke:#181818;stroke-width:1.0;stroke-dasharray:7.0,7.0;"/></g><!--link GMN26 to GMN29--><g id="link_GMN26_GMN29"><path d="M1733.14,266.6194 C1763.4,295.7694 1796.36,327.5294 1817.33,347.7294 " fill="none" id="GMN26-GMN29" style="stroke:#181818;stroke-width:1.0;stroke-dasharray:7.0,7.0;"/></g><!--SRC=[dLNRYjim47ttLmpxr1PsI-dR4W9Usra2kIosjsK9GIYnaeXOKf2LBTjIwBVqq_eb7SjnV4jsqpvQS-RCcQFno72JCl2K47l9bzHm9M4GZI4or33mELrhAk0RDnjm7uRWqJJD72VRShcZUIIpk1yEm1rTRjTQxMNYgLJfNaygBMZQxyFN3JSiHoYTCDsEtgMOU2gVQQqq0aPylJ6UqZHjSvG8d-fjo99J97Hf-3ChMUurOxBDSeJaD2LYeAI9-7S6dpuxFx5Xs-QLDnsFoT0V1LT0C-09MbTrqW1vqyaayEBXvDv2bqfAXdNa6gg2fn82luvdoJbu7BgJQ124OLd1Q2gp5JhoIWr_6BLq9JnxMnfMcOOMRWs7e_6EC_imX-lhlhN2SQmX-MUDynOAZYznsM85A-Xg25l9SMhfDJOqeqiM-6rqXpGUZeFfO_mchYZUGZKDgg4hBuzwKM2UqhY9UeORkoGCNF-fbN19ZMR6EUCQfSzQPuL4mIJkuY-HqaawfwP9Lex9QLQynoxy775nVgdU2ltwM3fIuSZhV4-0MXKZ3T1RzBlR4LVXRU_Zee_nFxz-8wyGP9K9mYKtxzwtJr7aZfhbXh1d9a_4UKQEzzIDuf-e3IbDFn5dXjWMkw5r6I8YMtV3cc4k7ZEPGDxxmO65CaQ9edKttmUsRzil7BvndXOlC9jbBvbX0jNZFkMI6gna5mUsR1yEaZySXExupMulKeYU8lm1l6deu_uXxiGdZm-ZgPj_pUT0KSP_KTP9B3QxATJdhm4O1OBoW_v_vxTmV22Fy7m0vlFAjBy0]--></g></svg>