<svg xmlns="http://www.w3.org/2000/svg" xmlns:xlink="http://www.w3.org/1999/xlink" contentStyleType="text/css" data-diagram-type="STATE" height="1312px" preserveAspectRatio="none" style="width:1426px;height:1312px;background:#FFFFFF;" version="1.1" viewBox="0 0 1426 1312" width="1426px" zoomAndPan="magnify"><title>OTA FSM State Diagram with API Calls</title><defs/><g><g class="title" data-source-line="2"><text fill="#000000" font-family="sans-serif" font-size="14" font-weight="bold" lengthAdjust="spacing" textLength="257.4893" x="577.5466" y="24.5332">OTA FSM State Diagram with API Calls</text></g><g id="idle"><rect fill="#FFFFFF" height="50" rx="12.5" ry="12.5" style="stroke:#000000;stroke-width:0.5;" width="82.8545" x="788.5" y="179.1094"/><line style="stroke:#000000;stroke-width:0.5;" x1="788.5" x2="871.3545" y1="205.4609" y2="205.4609"/><text fill="#000000" font-family="sans-serif" font-size="13" lengthAdjust="spacing" textLength="62.8545" x="798.5" y="197.6045">OTA_IDLE</text></g><g id="checking"><rect fill="#90EE90" height="50" rx="12.5" ry="12.5" style="stroke:#006400;stroke-width:0.5;" width="122.5718" x="581.5" y="360.6094"/><line style="stroke:#006400;stroke-width:0.5;" x1="581.5" x2="704.0718" y1="386.9609" y2="386.9609"/><text fill="#000000" font-family="sans-serif" font-size="13" lengthAdjust="spacing" textLength="102.5718" x="591.5" y="379.1045">OTA_CHECKING</text></g><g id="downloading"><rect fill="#90EE90" height="50" rx="12.5" ry="12.5" style="stroke:#006400;stroke-width:0.5;" width="153.6245" x="545" y="488.6094"/><line style="stroke:#006400;stroke-width:0.5;" x1="545" x2="698.6245" y1="514.9609" y2="514.9609"/><text fill="#000000" font-family="sans-serif" font-size="13" lengthAdjust="spacing" textLength="133.6245" x="555" y="507.1045">OTA_DOWNLOADING</text></g><g id="validating"><rect fill="#90EE90" height="50" rx="12.5" ry="12.5" style="stroke:#006400;stroke-width:0.5;" width="131.249" x="556.5" y="616.6094"/><line style="stroke:#006400;stroke-width:0.5;" x1="556.5" x2="687.749" y1="642.9609" y2="642.9609"/><text fill="#000000" font-family="sans-serif" font-size="13" lengthAdjust="spacing" textLength="111.249" x="566.5" y="635.1045">OTA_VALIDATING</text></g><g id="preparing"><rect fill="#90EE90" height="50" rx="12.5" ry="12.5" style="stroke:#006400;stroke-width:0.5;" width="130.5254" x="360.5" y="744.6094"/><line style="stroke:#006400;stroke-width:0.5;" x1="360.5" x2="491.0254" y1="770.9609" y2="770.9609"/><text fill="#000000" font-family="sans-serif" font-size="13" lengthAdjust="spacing" textLength="110.5254" x="370.5" y="763.1045">OTA_PREPARING</text></g><g id="installing"><rect fill="#90EE90" height="50" rx="12.5" ry="12.5" style="stroke:#006400;stroke-width:0.5;" width="129.8081" x="376" y="872.6094"/><line style="stroke:#006400;stroke-width:0.5;" x1="376" x2="505.8081" y1="898.9609" y2="898.9609"/><text fill="#000000" font-family="sans-serif" font-size="13" lengthAdjust="spacing" textLength="109.8081" x="386" y="891.1045">OTA_INSTALLING</text></g><g id="rebooting"><rect fill="#90EE90" height="50" rx="12.5" ry="12.5" style="stroke:#006400;stroke-width:0.5;" width="131.96" x="541" y="1000.6094"/><line style="stroke:#006400;stroke-width:0.5;" x1="541" x2="672.96" y1="1026.9609" y2="1026.9609"/><text fill="#000000" font-family="sans-serif" font-size="13" lengthAdjust="spacing" textLength="111.96" x="551" y="1019.1045">OTA_REBOOTING</text></g><g id="rollback"><rect fill="#F08080" height="50" rx="12.5" ry="12.5" style="stroke:#8B0000;stroke-width:0.5;" width="123.3145" x="484.5" y="1256.6094"/><line style="stroke:#8B0000;stroke-width:0.5;" x1="484.5" x2="607.8145" y1="1282.9609" y2="1282.9609"/><text fill="#000000" font-family="sans-serif" font-size="13" lengthAdjust="spacing" textLength="103.3145" x="494.5" y="1275.1045">OTA_ROLLBACK</text></g><g id="complete"><rect fill="#FFFFFF" height="50" rx="12.5" ry="12.5" style="stroke:#000000;stroke-width:0.5;" width="125.4663" x="733.5" y="1128.6094"/><line style="stroke:#000000;stroke-width:0.5;" x1="733.5" x2="858.9663" y1="1154.9609" y2="1154.9609"/><text fill="#000000" font-family="sans-serif" font-size="13" lengthAdjust="spacing" textLength="105.4663" x="743.5" y="1147.1045">OTA_COMPLETE</text></g><g id="error"><rect fill="#F08080" height="50" rx="12.5" ry="12.5" style="stroke:#8B0000;stroke-width:0.5;" width="100.9009" x="340.5" y="1128.6094"/><line style="stroke:#8B0000;stroke-width:0.5;" x1="340.5" x2="441.4009" y1="1154.9609" y2="1154.9609"/><text fill="#000000" font-family="sans-serif" font-size="13" lengthAdjust="spacing" textLength="80.9009" x="350.5" y="1147.1045">OTA_ERROR</text></g><ellipse cx="830" cy="54.6094" fill="#222222" rx="10" ry="10" style="stroke:#222222;stroke-width:1;"/><g class="entity" data-entity="GMN2" data-source-line="49" data-uid="ent0003" id="entity_GMN2"><path d="M1047.5,125.6094 L1047.5,282.7734 L1260.9292,282.7734 L1260.9292,135.6094 L1250.9292,125.6094 L1047.5,125.6094" fill="#FEFFDD" style="stroke:#181818;stroke-width:0.5;"/><path d="M1250.9292,125.6094 L1250.9292,135.6094 L1260.9292,135.6094 L1250.9292,125.6094" fill="#FEFFDD" style="stroke:#181818;stroke-width:1;"/><text fill="#000000" font-family="sans-serif" font-size="13" font-weight="bold" lengthAdjust="spacing" textLength="88.1055" x="1053.5" y="144.1045">OTA FSM API:</text><text fill="#000000" font-family="sans-serif" font-size="13" lengthAdjust="spacing" textLength="87.6421" x="1053.5" y="160.4561">&#8226; ota_fsm_init()</text><text fill="#000000" font-family="sans-serif" font-size="13" lengthAdjust="spacing" textLength="158.4756" x="1053.5" y="176.8076">&#8226; ota_fsm_dispatch_event()</text><text fill="#000000" font-family="sans-serif" font-size="13" lengthAdjust="spacing" textLength="124.5093" x="1053.5" y="193.1592">&#8226; ota_fsm_get_state()</text><text fill="#000000" font-family="sans-serif" font-size="13" lengthAdjust="spacing" textLength="164.2583" x="1053.5" y="209.5107">&#8226; ota_fsm_get_state_name()</text><text fill="#000000" font-family="sans-serif" font-size="13" lengthAdjust="spacing" textLength="166.4229" x="1053.5" y="225.8623">&#8226; ota_fsm_set_package_url()</text><text fill="#000000" font-family="sans-serif" font-size="13" lengthAdjust="spacing" textLength="142.5811" x="1053.5" y="242.2139">&#8226; ota_fsm_add_module()</text><text fill="#000000" font-family="sans-serif" font-size="13" lengthAdjust="spacing" textLength="192.4292" x="1053.5" y="258.5654">&#8226; ota_fsm_get_overall_progress()</text><text fill="#000000" font-family="sans-serif" font-size="13" lengthAdjust="spacing" textLength="123.043" x="1053.5" y="274.917">&#8226; ota_fsm_set_error()</text></g><g class="entity" data-entity="GMN5" data-source-line="61" data-uid="ent0006" id="entity_GMN5"><path d="M1158,364.1094 L1158,406.8125 L1419.5825,406.8125 L1419.5825,374.1094 L1409.5825,364.1094 L1158,364.1094" fill="#FEFFDD" style="stroke:#181818;stroke-width:0.5;"/><path d="M1409.5825,364.1094 L1409.5825,374.1094 L1419.5825,374.1094 L1409.5825,364.1094" fill="#FEFFDD" style="stroke:#181818;stroke-width:1;"/><text fill="#000000" font-family="sans-serif" font-size="13" font-weight="bold" lengthAdjust="spacing" textLength="67.1709" x="1164" y="382.6045">Activation:</text><text fill="#000000" font-family="sans-serif" font-size="13" lengthAdjust="spacing" textLength="70.8145" x="1234.7827" y="382.6045">Activated by</text><a href="system_coordinator_state_diagram_with_api.puml" target="_top" title="system_coordinator_state_diagram_with_api.puml" xlink:actuate="onRequest" xlink:href="system_coordinator_state_diagram_with_api.puml" xlink:show="new" xlink:title="system_coordinator_state_diagram_with_api.puml" xlink:type="simple"><text fill="#0000FF" font-family="sans-serif" font-size="13" lengthAdjust="spacing" text-decoration="underline" textLength="59.9663" x="1309.209" y="382.6045">SYS_OTA</text></a><text fill="#000000" font-family="sans-serif" font-size="13" lengthAdjust="spacing" textLength="31.7954" x="1372.7871" y="382.6045">state.</text><text fill="#000000" font-family="sans-serif" font-size="13" font-weight="bold" lengthAdjust="spacing" textLength="85.2427" x="1164" y="398.9561">Back to main:</text><text fill="#000000" font-family="sans-serif" font-size="13" lengthAdjust="spacing" textLength="3.6118" x="1249.2427" y="398.9561">&#160;</text><a href="system_coordinator_state_diagram_with_api.puml" target="_top" title="system_coordinator_state_diagram_with_api.puml" xlink:actuate="onRequest" xlink:href="system_coordinator_state_diagram_with_api.puml" xlink:show="new" xlink:title="system_coordinator_state_diagram_with_api.puml" xlink:type="simple"><text fill="#0000FF" font-family="sans-serif" font-size="13" lengthAdjust="spacing" text-decoration="underline" textLength="145.9326" x="1252.8545" y="398.9561">System Coordinator FSM</text></a></g><!--link idle to checking--><g class="link" data-entity-1="idle" data-entity-2="checking" data-source-line="25" data-uid="lnk2" id="link_idle_checking"><path d="M828.72,229.5594 C825.97,257.4794 817.44,302.8594 791,330.6094 C768.36,354.3694 740.2484,366.2645 710.5784,373.7345" fill="none" id="idle-to-checking" style="stroke:#181818;stroke-width:1;"/><polygon fill="#181818" points="704.76,375.1994,714.4642,376.881,709.6087,373.9786,712.511,369.1231,704.76,375.1994" style="stroke:#181818;stroke-width:1;"/><text fill="#000000" font-family="sans-serif" font-size="13" lengthAdjust="spacing" textLength="109.0781" x="805" y="327.1045">OTA_EVT_START</text></g><!--link checking to idle--><g class="link" data-entity-1="checking" data-entity-2="idle" data-source-line="27" data-uid="lnk4" id="link_checking_idle"><path d="M633.74,360.3494 C629.71,345.5894 627.59,326.8894 636,312.6094 C668.74,257.0394 735.9218,229.821 782.4418,216.501" fill="none" id="checking-to-idle" style="stroke:#181818;stroke-width:1;"/><polygon fill="#181818" points="788.21,214.8494,778.4566,213.4813,783.4032,216.2257,780.6588,221.1722,788.21,214.8494" style="stroke:#181818;stroke-width:1;"/><text fill="#000000" font-family="sans-serif" font-size="13" lengthAdjust="spacing" textLength="145.9263" x="637" y="327.1045">OTA_EVT_NO_UPDATE</text></g><!--link checking to downloading--><g class="link" data-entity-1="checking" data-entity-2="downloading" data-source-line="26" data-uid="lnk3" id="link_checking_downloading"><path d="M638.95,410.8994 C635.23,433.2194 630.7351,460.1808 627.0251,482.4708" fill="none" id="checking-to-downloading" style="stroke:#181818;stroke-width:1;"/><polygon fill="#181818" points="626.04,488.3894,631.4634,480.1682,626.8609,483.4572,623.5719,478.8548,626.04,488.3894" style="stroke:#181818;stroke-width:1;"/><text fill="#000000" font-family="sans-serif" font-size="13" lengthAdjust="spacing" textLength="196.5234" x="635" y="455.1045">OTA_EVT_UPDATE_AVAILABLE</text></g><!--link downloading to validating--><g class="link" data-entity-1="downloading" data-entity-2="validating" data-source-line="28" data-uid="lnk5" id="link_downloading_validating"><path d="M622,538.8994 C622,561.2194 622,588.0994 622,610.3894" fill="none" id="downloading-to-validating" style="stroke:#181818;stroke-width:1;"/><polygon fill="#181818" points="622,616.3894,626,607.3894,622,611.3894,618,607.3894,622,616.3894" style="stroke:#181818;stroke-width:1;"/><text fill="#000000" font-family="sans-serif" font-size="13" lengthAdjust="spacing" textLength="221.7681" x="623" y="583.1045">OTA_EVT_DOWNLOAD_COMPLETE</text></g><!--link validating to preparing--><g class="link" data-entity-1="validating" data-entity-2="preparing" data-source-line="29" data-uid="lnk6" id="link_validating_preparing"><path d="M556.29,651.7494 C504.83,660.4094 439.31,675.2794 423,696.6094 C412.74,710.0294 412.7434,723.4718 416.3634,738.7118" fill="none" id="validating-to-preparing" style="stroke:#181818;stroke-width:1;"/><polygon fill="#181818" points="417.75,744.5494,419.5618,734.8686,416.5945,739.6847,411.7784,736.7174,417.75,744.5494" style="stroke:#181818;stroke-width:1;"/><text fill="#000000" font-family="sans-serif" font-size="13" lengthAdjust="spacing" textLength="171.2344" x="424" y="711.1045">OTA_EVT_VALIDATE_PASS</text></g><!--link validating to error--><g class="link" data-entity-1="validating" data-entity-2="error" data-source-line="30" data-uid="lnk7" id="link_validating_error"><path d="M617.23,666.8494 C608.43,718.7294 595.1,842.3294 649,922.6094 C664.96,946.3794 690.26,928.6994 706,952.6094 C741.76,1006.9394 758.05,1048.9894 716,1098.6094 C681.42,1139.4094 529.9474,1149.2425 447.5674,1151.6725" fill="none" id="validating-to-error" style="stroke:#181818;stroke-width:1;"/><polygon fill="#181818" points="441.57,1151.8494,450.684,1155.5823,446.5678,1151.702,450.4481,1147.5858,441.57,1151.8494" style="stroke:#181818;stroke-width:1;"/><text fill="#000000" font-family="sans-serif" font-size="13" lengthAdjust="spacing" textLength="164.0044" x="650" y="903.1045">OTA_EVT_VALIDATE_FAIL</text></g><!--link validating to error--><g class="link" data-entity-1="validating" data-entity-2="error" data-source-line="39" data-uid="lnk16" id="link_validating_error"><path d="M687.74,649.5794 C757.57,661.0594 858,691.0494 858,768.6094 C858,768.6094 858,768.6094 858,1026.6094 C858,1112.0594 568.8856,1140.8644 447.8556,1149.2544" fill="none" id="validating-to-error-1" style="stroke:#181818;stroke-width:1;"/><polygon fill="#181818" points="441.87,1149.6694,451.1251,1153.0374,446.858,1149.3236,450.5718,1145.0566,441.87,1149.6694" style="stroke:#181818;stroke-width:1;"/><text fill="#000000" font-family="sans-serif" font-size="13" lengthAdjust="spacing" textLength="113.4136" x="859" y="903.1045">OTA_EVT_ERROR</text></g><!--link preparing to installing--><g class="link" data-entity-1="preparing" data-entity-2="installing" data-source-line="31" data-uid="lnk8" id="link_preparing_installing"><path d="M423.78,794.7294 C422.95,808.7694 422.7,826.7694 425,842.6094 C426.45,852.5794 427.5067,857.5499 430.4267,866.7599" fill="none" id="preparing-to-installing" style="stroke:#181818;stroke-width:1;"/><polygon fill="#181818" points="432.24,872.4794,433.333,862.6914,430.7289,867.7132,425.7071,865.1091,432.24,872.4794" style="stroke:#181818;stroke-width:1;"/><text fill="#000000" font-family="sans-serif" font-size="13" lengthAdjust="spacing" textLength="169.0508" x="426" y="839.1045">OTA_EVT_INSTALL_START</text></g><!--link installing to rebooting--><g class="link" data-entity-1="installing" data-entity-2="rebooting" data-source-line="32" data-uid="lnk9" id="link_installing_rebooting"><path d="M458.01,922.7394 C469.49,937.8094 485.67,956.8894 503,970.6094 C517.52,982.0994 529.5139,989.5155 545.8239,997.8255" fill="none" id="installing-to-rebooting" style="stroke:#181818;stroke-width:1;"/><polygon fill="#181818" points="551.17,1000.5494,544.9668,992.8995,546.7149,998.2795,541.335,1000.0277,551.17,1000.5494" style="stroke:#181818;stroke-width:1;"/><text fill="#000000" font-family="sans-serif" font-size="13" lengthAdjust="spacing" textLength="197.9517" x="504" y="967.1045">OTA_EVT_INSTALL_COMPLETE</text></g><!--link rebooting to complete--><g class="link" data-entity-1="rebooting" data-entity-2="complete" data-source-line="33" data-uid="lnk10" id="link_rebooting_complete"><path d="M643.44,1050.8994 C677.02,1073.2894 721.5575,1102.9815 754.9975,1125.2715" fill="none" id="rebooting-to-complete" style="stroke:#181818;stroke-width:1;"/><polygon fill="#181818" points="759.99,1128.5994,754.7198,1120.2792,755.8296,1125.8262,750.2826,1126.9359,759.99,1128.5994" style="stroke:#181818;stroke-width:1;"/><text fill="#000000" font-family="sans-serif" font-size="13" lengthAdjust="spacing" textLength="109.8081" x="714" y="1095.1045">OTA_EVT_RESET</text></g><!--link complete to idle--><g class="link" data-entity-1="complete" data-entity-2="idle" data-source-line="34" data-uid="lnk11" id="link_complete_idle"><path d="M825.62,1128.5394 C869.87,1090.3994 951.2,1011.2594 981,922.6094 C988.08,901.5494 981.91,894.8094 981,872.6094 C977.78,794.2394 965.82,775.0194 968,696.6094 C968.67,672.5794 971,666.6494 971,642.6094 C971,384.6094 971,384.6094 971,384.6094 C971,317.0394 913.2967,263.4099 871.5167,232.7399" fill="none" id="complete-to-idle" style="stroke:#181818;stroke-width:1;"/><polygon fill="#181818" points="866.68,229.1894,871.568,237.7397,870.7106,232.1482,876.3021,231.2907,866.68,229.1894" style="stroke:#181818;stroke-width:1;"/><text fill="#000000" font-family="sans-serif" font-size="13" lengthAdjust="spacing" textLength="109.8081" x="969" y="711.1045">OTA_EVT_RESET</text></g><!--link error to rollback--><g class="link" data-entity-1="error" data-entity-2="rollback" data-source-line="35" data-uid="lnk12" id="link_error_rollback"><path d="M441.75,1170.1194 C463.76,1178.7594 488.64,1191.3294 507,1208.6094 C520.98,1221.7594 528.7415,1235.5354 535.1515,1250.8354" fill="none" id="error-to-rollback" style="stroke:#181818;stroke-width:1;"/><polygon fill="#181818" points="537.47,1256.3694,537.6816,1246.5228,535.5379,1251.7577,530.303,1249.6141,537.47,1256.3694" style="stroke:#181818;stroke-width:1;"/><text fill="#000000" font-family="sans-serif" font-size="13" lengthAdjust="spacing" textLength="135.8271" x="523" y="1223.1045">OTA_EVT_ROLLBACK</text></g><!--link rollback to error--><g class="link" data-entity-1="rollback" data-entity-2="error" data-source-line="43" data-uid="lnk20" id="link_rollback_error"><path d="M484.5,1277.1594 C448.92,1271.6194 406.79,1258.2394 384,1226.6094 C374.16,1212.9594 374.8254,1199.6192 379.3254,1184.5292" fill="none" id="rollback-to-error" style="stroke:#181818;stroke-width:1;"/><polygon fill="#181818" points="381.04,1178.7794,374.6348,1186.2609,379.6111,1183.5709,382.3012,1188.5471,381.04,1178.7794" style="stroke:#181818;stroke-width:1;"/><text fill="#000000" font-family="sans-serif" font-size="13" lengthAdjust="spacing" textLength="113.4136" x="385" y="1223.1045">OTA_EVT_ERROR</text></g><!--link rollback to idle--><g class="link" data-entity-1="rollback" data-entity-2="idle" data-source-line="36" data-uid="lnk13" id="link_rollback_idle"><path d="M607.69,1279.6394 C753.07,1275.6694 1105,1255.6494 1105,1154.6094 C1105,384.6094 1105,384.6094 1105,384.6094 C1105,329.5894 954.2107,257.8826 877.2807,224.7526" fill="none" id="rollback-to-idle" style="stroke:#181818;stroke-width:1;"/><polygon fill="#181818" points="871.77,222.3794,878.4539,229.613,876.3623,224.357,881.6182,222.2654,871.77,222.3794" style="stroke:#181818;stroke-width:1;"/><text fill="#000000" font-family="sans-serif" font-size="13" lengthAdjust="spacing" textLength="214.5698" x="1106" y="775.1045">OTA_EVT_ROLLBACK_COMPLETE</text></g><!--link idle to error--><g class="link" data-entity-1="idle" data-entity-2="error" data-source-line="37" data-uid="lnk14" id="link_idle_error"><path d="M788.29,205.1794 C620.78,206.5794 6,222.7294 6,384.6094 C6,384.6094 6,384.6094 6,1026.6094 C6,1096.1494 229.7785,1132.6782 334.3185,1146.0482" fill="none" id="idle-to-error" style="stroke:#181818;stroke-width:1;"/><polygon fill="#181818" points="340.27,1146.8094,331.8502,1141.6999,335.3104,1146.1751,330.8353,1149.6353,340.27,1146.8094" style="stroke:#181818;stroke-width:1;"/><text fill="#000000" font-family="sans-serif" font-size="13" lengthAdjust="spacing" textLength="113.4136" x="7" y="711.1045">OTA_EVT_ERROR</text></g><!--link error to idle--><g class="link" data-entity-1="error" data-entity-2="idle" data-source-line="44" data-uid="lnk21" id="link_error_idle"><path d="M340.24,1147.2594 C272.51,1136.9894 161,1107.7694 161,1026.6094 C161,384.6094 161,384.6094 161,384.6094 C161,254.0594 636.2504,216.1918 782.4104,207.5918" fill="none" id="error-to-idle" style="stroke:#181818;stroke-width:1;"/><polygon fill="#181818" points="788.4,207.2394,779.1806,203.7749,783.4086,207.5331,779.6505,211.7611,788.4,207.2394" style="stroke:#181818;stroke-width:1;"/><text fill="#000000" font-family="sans-serif" font-size="13" lengthAdjust="spacing" textLength="109.8081" x="162" y="711.1045">OTA_EVT_RESET</text></g><!--link downloading to error--><g class="link" data-entity-1="downloading" data-entity-2="error" data-source-line="38" data-uid="lnk15" id="link_downloading_error"><path d="M567.78,538.6194 C478.96,581.3394 305.39,679.8694 236,824.6094 C223.33,851.0394 168.14,800.7194 285,1050.6094 C300.09,1082.8794 325.4131,1106.6653 349.7031,1124.9153" fill="none" id="downloading-to-error" style="stroke:#181818;stroke-width:1;"/><polygon fill="#181818" points="354.5,1128.5194,349.7074,1119.9153,350.5026,1125.516,344.9019,1126.3112,354.5,1128.5194" style="stroke:#181818;stroke-width:1;"/><text fill="#000000" font-family="sans-serif" font-size="13" lengthAdjust="spacing" textLength="113.4136" x="237" y="839.1045">OTA_EVT_ERROR</text></g><!--link preparing to error--><g class="link" data-entity-1="preparing" data-entity-2="error" data-source-line="40" data-uid="lnk17" id="link_preparing_error"><path d="M400.88,794.8594 C369.27,827.3094 316.62,888.2694 296,952.6094 C274.71,1019.0494 327.2346,1087.4527 362.0146,1124.1827" fill="none" id="preparing-to-error" style="stroke:#181818;stroke-width:1;"/><polygon fill="#181818" points="366.14,1128.5394,362.8564,1119.254,362.7022,1124.9088,357.0474,1124.7546,366.14,1128.5394" style="stroke:#181818;stroke-width:1;"/><text fill="#000000" font-family="sans-serif" font-size="13" lengthAdjust="spacing" textLength="113.4136" x="297" y="967.1045">OTA_EVT_ERROR</text></g><!--link installing to error--><g class="link" data-entity-1="installing" data-entity-2="error" data-source-line="41" data-uid="lnk18" id="link_installing_error"><path d="M433.99,922.7194 C429.83,936.7494 424.33,954.7494 419,970.6094 C414.48,984.0694 411.26,986.7894 408,1000.6094 C397.56,1044.9394 393.7889,1092.0973 392.2289,1122.3573" fill="none" id="installing-to-error" style="stroke:#181818;stroke-width:1;"/><polygon fill="#181818" points="391.92,1128.3494,396.3781,1119.5673,392.1774,1123.356,388.3887,1119.1554,391.92,1128.3494" style="stroke:#181818;stroke-width:1;"/><text fill="#000000" font-family="sans-serif" font-size="13" lengthAdjust="spacing" textLength="113.4136" x="409" y="1031.1045">OTA_EVT_ERROR</text></g><!--link rebooting to error--><g class="link" data-entity-1="rebooting" data-entity-2="error" data-source-line="42" data-uid="lnk19" id="link_rebooting_error"><path d="M565.61,1050.7494 C527.27,1073.1194 475.7328,1103.1863 437.4328,1125.5263" fill="none" id="rebooting-to-error" style="stroke:#181818;stroke-width:1;"/><polygon fill="#181818" points="432.25,1128.5494,442.0395,1127.47,436.569,1126.0302,438.0088,1120.5596,432.25,1128.5494" style="stroke:#181818;stroke-width:1;"/><text fill="#000000" font-family="sans-serif" font-size="13" lengthAdjust="spacing" textLength="113.4136" x="513" y="1095.1045">OTA_EVT_ERROR</text></g><!--link *start* to idle--><g class="link" data-entity-1="*start*" data-entity-2="idle" data-source-line="46" data-uid="lnk23" id="link_*start*_idle"><path d="M830,64.8394 C830,87.3494 830,139.6894 830,172.9594" fill="none" id="*start*-to-idle" style="stroke:#181818;stroke-width:1;"/><polygon fill="#181818" points="830,178.9594,834,169.9594,830,173.9594,826,169.9594,830,178.9594" style="stroke:#181818;stroke-width:1;"/></g><!--link idle to GMN2--><g class="link" data-entity-1="idle" data-entity-2="GMN2" data-source-line="49" data-uid="lnk4" id="link_idle_GMN2"><path d="M871.77,204.1094 C930.29,204.1094 988.81,204.1094 1047.34,204.1094" fill="none" id="idle-GMN2" style="stroke:#181818;stroke-width:1;stroke-dasharray:7.0,7.0;"/></g><!--link GMN2 to GMN5--><g class="link" data-entity-1="GMN2" data-entity-2="GMN5" data-source-line="61" data-uid="lnk7" id="link_GMN2_GMN5"><path d="M1212.43,282.7994 C1234.8,312.5494 1258.53,344.0994 1273.54,364.0594" fill="none" id="GMN2-GMN5" style="stroke:#181818;stroke-width:1;stroke-dasharray:7.0,7.0;"/></g><!--SRC=[bPNVQjim5CRl_HI7NMs3TepTbH1m7BSBTUDWPosZ1A74gYCgIqPMKhensBFiqVOaa-K_SXnxOvVHzpj7EjyvyL5KCGBXseNh-0vYXHM1ESMfn1cyKBK7TxK03pDME4xnJ7cEIwKmt7S7O8PtpwaK1vvuWWavcN0XCyocKtZOKqLAGiY4oBuwOpfmA9v8AQG60fhkbISaPlqS3J77yZaYoL0Il5FqI9eiDv8Gti_I8cMQXhWMNCNq6u6FdvmVkc1JvXlj3bhC0_yDu09eelsoXNGPxxFltIwMDuRRxSbE-vM2lQhBpiE7PH2wymPFn0jd0YVZ4VTki9YxwoRWY1bDi1hdLv6_SgC6poNHhHkd5yjuxGP1WrEkDSR6-SYVXM7x64csGlpbBL4O13FNkwrWmTXMTmpQLfwO6Dwj0dzTcRqJMSw86ZFSZw8mCg19r4dec3PTN4nj7wx0XDolaQuqMZkjK59T-otuPQKDzv5xxou2TnRufp7c2WilmvftkibAiDCgYpS3q1RiTB0oodRC1jKpuAEL6yVzWCg30VXQFz-nwSpRRNzjG3q3jJyTf8omBJuFQ4kmaB6-wPwDYFpOrzOtme2D5L7LOkvjfgM3rDFajDfGdXgoZsj7ec-K6QEphWrJ__2yWawz7cPwzWv3ftwEC5qJXX7hvg3PpkFxJQiw3XUwCxByS89ugiu09jjfioJqHhYQVDXEzUdldxz0A8oUYWnHJjNRTxt3X1OvLhiz8aV2p-MKA6J-p-CAuZWxbmijvxfed19qaEnCnqc2Cf4Ss71cSIHwiJ2KIv5AKXI3-OrhMY4yWTAJsfcjK4fabILk-QtJqo2uSGJgtoI1xIiyFXQlXI8PsWczU2Z7IiYwfgJQiAZSi0Zdz38_P0pYhp7I9cysrNwzhEuebnie0HcczIt_dzZWu5cyREHcOqlx0m00]--></g></svg>