<?xml version="1.0" encoding="us-ascii" standalone="no"?><svg xmlns="http://www.w3.org/2000/svg" xmlns:xlink="http://www.w3.org/1999/xlink" contentStyleType="text/css" height="735px" preserveAspectRatio="none" style="width:1062px;height:735px;background:#FFFFFF;" version="1.1" viewBox="0 0 1062 735" width="1062px" zoomAndPan="magnify"><defs/><g><text fill="#000000" font-family="sans-serif" font-size="14" font-weight="bold" lengthAdjust="spacing" textLength="277" x="385.5" y="24.5332">Power FSM State Diagram with API Calls</text><g id="off"><rect fill="#FFFFFF" height="50" rx="12.5" ry="12.5" style="stroke:#000000;stroke-width:0.5;" width="103" x="322.5" y="146.6094"/><line style="stroke:#000000;stroke-width:0.5;" x1="322.5" x2="425.5" y1="172.9609" y2="172.9609"/><text fill="#000000" font-family="sans-serif" font-size="13" lengthAdjust="spacing" textLength="83" x="332.5" y="165.1045">POWER_OFF</text></g><g id="on"><rect fill="#90EE90" height="50" rx="12.5" ry="12.5" style="stroke:#006400;stroke-width:0.5;" width="96" x="376" y="295.6094"/><line style="stroke:#006400;stroke-width:0.5;" x1="376" x2="472" y1="321.9609" y2="321.9609"/><text fill="#000000" font-family="sans-serif" font-size="13" lengthAdjust="spacing" textLength="76" x="386" y="314.1045">POWER_ON</text></g><g id="low"><rect fill="#F08080" height="50" rx="12.5" ry="12.5" style="stroke:#8B0000;stroke-width:0.5;" width="173" x="660.5" y="423.6094"/><line style="stroke:#8B0000;stroke-width:0.5;" x1="660.5" x2="833.5" y1="449.9609" y2="449.9609"/><text fill="#000000" font-family="sans-serif" font-size="13" lengthAdjust="spacing" textLength="153" x="670.5" y="442.1045">POWER_LOW_BATTERY</text></g><g id="charging"><rect fill="#90EE90" height="50" rx="12.5" ry="12.5" style="stroke:#006400;stroke-width:0.5;" width="145" x="380.5" y="551.6094"/><line style="stroke:#006400;stroke-width:0.5;" x1="380.5" x2="525.5" y1="577.9609" y2="577.9609"/><text fill="#000000" font-family="sans-serif" font-size="13" lengthAdjust="spacing" textLength="125" x="390.5" y="570.1045">POWER_CHARGING</text></g><g id="sleep"><rect fill="#FFFFFF" height="50" rx="12.5" ry="12.5" style="stroke:#000000;stroke-width:0.5;" width="120" x="393" y="679.6094"/><line style="stroke:#000000;stroke-width:0.5;" x1="393" x2="513" y1="705.9609" y2="705.9609"/><text fill="#000000" font-family="sans-serif" font-size="13" lengthAdjust="spacing" textLength="100" x="403" y="698.1045">POWER_SLEEP</text></g><ellipse cx="374" cy="54.6094" fill="#222222" rx="10" ry="10" style="stroke:#222222;stroke-width:1.0;"/><g id="elem_GMN19"><path d="M529,125.6094 L529,217.3672 L729,217.3672 L729,135.6094 L719,125.6094 L529,125.6094 " fill="#FEFFDD" style="stroke:#181818;stroke-width:0.5;"/><path d="M719,125.6094 L719,135.6094 L729,135.6094 L719,125.6094 " fill="#FEFFDD" style="stroke:#181818;stroke-width:1.0;"/><text fill="#000000" font-family="sans-serif" font-size="13" font-weight="bold" lengthAdjust="spacing" textLength="103" x="535" y="144.1045">Power FSM API:</text><text fill="#000000" font-family="sans-serif" font-size="13" lengthAdjust="spacing" textLength="103" x="535" y="160.4561">&#8226; power_fsm_init()</text><text fill="#000000" font-family="sans-serif" font-size="13" lengthAdjust="spacing" textLength="172" x="535" y="176.8076">&#8226; power_fsm_dispatch_event()</text><text fill="#000000" font-family="sans-serif" font-size="13" lengthAdjust="spacing" textLength="140" x="535" y="193.1592">&#8226; power_fsm_get_state()</text><text fill="#000000" font-family="sans-serif" font-size="13" lengthAdjust="spacing" textLength="179" x="535" y="209.5107">&#8226; power_fsm_get_state_name()</text></g><g id="elem_GMN22"><path d="M507.5,299.1094 L507.5,341.8125 L886.5,341.8125 L886.5,309.1094 L876.5,299.1094 L507.5,299.1094 " fill="#FEFFDD" style="stroke:#181818;stroke-width:0.5;"/><path d="M876.5,299.1094 L876.5,309.1094 L886.5,309.1094 L876.5,299.1094 " fill="#FEFFDD" style="stroke:#181818;stroke-width:1.0;"/><text fill="#000000" font-family="sans-serif" font-size="13" font-weight="bold" lengthAdjust="spacing" textLength="67" x="513.5" y="317.6045">Activation:</text><text fill="#000000" font-family="sans-serif" font-size="13" lengthAdjust="spacing" textLength="71" x="584.5" y="317.6045">Activated by</text><a href="system_coordinator_state_diagram_with_api.puml" target="_top" title="system_coordinator_state_diagram_with_api.puml" xlink:actuate="onRequest" xlink:href="system_coordinator_state_diagram_with_api.puml" xlink:show="new" xlink:title="system_coordinator_state_diagram_with_api.puml" xlink:type="simple"><text fill="#0000FF" font-family="sans-serif" font-size="13" lengthAdjust="spacing" text-decoration="underline" textLength="62" x="659.5" y="317.6045">SYS_IDLE</text></a><text fill="#000000" font-family="sans-serif" font-size="13" lengthAdjust="spacing" textLength="21" x="725.5" y="317.6045">and</text><a href="system_coordinator_state_diagram_with_api.puml" target="_top" title="system_coordinator_state_diagram_with_api.puml" xlink:actuate="onRequest" xlink:href="system_coordinator_state_diagram_with_api.puml" xlink:show="new" xlink:title="system_coordinator_state_diagram_with_api.puml" xlink:type="simple"><text fill="#0000FF" font-family="sans-serif" font-size="13" lengthAdjust="spacing" text-decoration="underline" textLength="77" x="750.5" y="317.6045">SYS_SLEEP</text></a><text fill="#000000" font-family="sans-serif" font-size="13" lengthAdjust="spacing" textLength="40" x="831.5" y="317.6045">states.</text><text fill="#000000" font-family="sans-serif" font-size="13" font-weight="bold" lengthAdjust="spacing" textLength="87" x="513.5" y="333.9561">Back to main:</text><text fill="#000000" font-family="sans-serif" font-size="13" lengthAdjust="spacing" textLength="4" x="600.5" y="333.9561">&#160;</text><a href="system_coordinator_state_diagram_with_api.puml" target="_top" title="system_coordinator_state_diagram_with_api.puml" xlink:actuate="onRequest" xlink:href="system_coordinator_state_diagram_with_api.puml" xlink:show="new" xlink:title="system_coordinator_state_diagram_with_api.puml" xlink:type="simple"><text fill="#0000FF" font-family="sans-serif" font-size="13" lengthAdjust="spacing" text-decoration="underline" textLength="147" x="604.5" y="333.9561">System Coordinator FSM</text></a></g><!--link off to on--><g id="link_off_on"><path d="M400.26,196.6294 C413.09,210.1894 427.21,228.2594 434,247.6094 C439.39,262.9694 438.3911,275.3414 434.5011,289.5814 " fill="none" id="off-to-on" style="stroke:#181818;stroke-width:1.0;"/><polygon fill="#181818" points="432.92,295.3694,439.1503,287.7416,434.2376,290.5461,431.4331,285.6334,432.92,295.3694" style="stroke:#181818;stroke-width:1.0;"/><text fill="#000000" font-family="sans-serif" font-size="13" lengthAdjust="spacing" textLength="149" x="439" y="262.1045">POWER_EVT_TURN_ON</text></g><!--link on to off--><g id="link_on_off"><path d="M375.79,317.1494 C339.6,312.4694 292.27,299.6994 268,265.6094 C246.91,235.9994 280.5247,211.9806 317.0347,194.9106 " fill="none" id="on-to-off" style="stroke:#181818;stroke-width:1.0;"/><polygon fill="#181818" points="322.47,192.3694,312.6229,192.5577,317.9406,194.4871,316.0112,199.8047,322.47,192.3694" style="stroke:#181818;stroke-width:1.0;"/><text fill="#000000" font-family="sans-serif" font-size="13" lengthAdjust="spacing" textLength="156" x="269" y="262.1045">POWER_EVT_TURN_OFF</text></g><!--link on to low--><g id="link_on_low"><path d="M472.01,340.3394 C528.77,362.4794 617.7702,397.1989 679.8602,421.4189 " fill="none" id="on-to-low" style="stroke:#181818;stroke-width:1.0;"/><polygon fill="#181818" points="685.45,423.5994,678.519,416.6022,680.7919,421.7823,675.6117,424.0552,685.45,423.5994" style="stroke:#181818;stroke-width:1.0;"/><text fill="#000000" font-family="sans-serif" font-size="13" lengthAdjust="spacing" textLength="185" x="605" y="390.1045">POWER_EVT_LOW_BATTERY</text></g><!--link low to charging--><g id="link_low_charging"><path d="M660.2,468.0294 C651.02,469.9294 641.82,471.8194 633,473.6094 C564.66,487.4594 531.96,458.2494 479,503.6094 C465.07,515.5394 459.7124,529.6334 456.7124,545.5334 " fill="none" id="low-to-charging" style="stroke:#181818;stroke-width:1.0;"/><polygon fill="#181818" points="455.6,551.4294,461.1993,543.3271,456.527,546.5161,453.338,541.8438,455.6,551.4294" style="stroke:#181818;stroke-width:1.0;"/><text fill="#000000" font-family="sans-serif" font-size="13" lengthAdjust="spacing" textLength="205" x="480" y="518.1045">POWER_EVT_CHARGING_START</text></g><!--link charging to on--><g id="link_charging_on"><path d="M450.23,551.3294 C444.69,502.8394 433.0002,400.4707 427.4602,351.9207 " fill="none" id="charging-to-on" style="stroke:#181818;stroke-width:1.0;"/><polygon fill="#181818" points="426.78,345.9594,423.8262,355.3548,427.3469,350.9271,431.7746,354.4479,426.78,345.9594" style="stroke:#181818;stroke-width:1.0;"/><text fill="#000000" font-family="sans-serif" font-size="13" lengthAdjust="spacing" textLength="199" x="442" y="454.1045">POWER_EVT_CHARGING_STOP</text></g><!--link on to sleep--><g id="link_on_sleep"><path d="M376.65,345.6094 C315.73,380.0594 221.39,447.5894 254,521.6094 C285.71,593.5894 356.3971,646.3233 404.7571,676.2333 " fill="none" id="on-to-sleep" style="stroke:#181818;stroke-width:1.0;"/><polygon fill="#181818" points="409.86,679.3894,404.3097,671.2534,405.6076,676.7593,400.1017,678.0572,409.86,679.3894" style="stroke:#181818;stroke-width:1.0;"/><text fill="#000000" font-family="sans-serif" font-size="13" lengthAdjust="spacing" textLength="182" x="255" y="518.1045">POWER_EVT_ENTER_SLEEP</text></g><!--link sleep to on--><g id="link_sleep_on"><path d="M513.41,699.1194 C625.21,689.4094 857.47,662.2794 906,601.6094 C919.88,584.2594 910.48,573.3794 906,551.6094 C887.55,461.9394 882.55,413.0294 799,375.6094 C673.07,319.2094 624.57,376.0994 490,345.6094 C484.17,344.2894 483.8786,344.4154 477.9586,342.5354 " fill="none" id="sleep-to-on" style="stroke:#181818;stroke-width:1.0;"/><polygon fill="#181818" points="472.24,340.7194,479.6072,347.2558,477.0055,342.2327,482.0285,339.631,472.24,340.7194" style="stroke:#181818;stroke-width:1.0;"/><text fill="#000000" font-family="sans-serif" font-size="13" lengthAdjust="spacing" textLength="154" x="900" y="518.1045">POWER_EVT_WAKE_UP</text></g><!--link low to sleep--><g id="link_low_sleep"><path d="M741.4,473.9394 C730.42,516.1494 701.97,602.9094 645,649.6094 C607.78,680.1194 560.3114,692.5826 519.2714,698.3626 " fill="none" id="low-to-sleep" style="stroke:#181818;stroke-width:1.0;"/><polygon fill="#181818" points="513.33,699.1994,522.7999,701.9051,518.2811,698.5021,521.6842,693.9833,513.33,699.1994" style="stroke:#181818;stroke-width:1.0;"/><text fill="#000000" font-family="sans-serif" font-size="13" lengthAdjust="spacing" textLength="182" x="715" y="582.1045">POWER_EVT_ENTER_SLEEP</text></g><!--link charging to sleep--><g id="link_charging_sleep"><path d="M453,601.8994 C453,624.2194 453,651.0994 453,673.3894 " fill="none" id="charging-to-sleep" style="stroke:#181818;stroke-width:1.0;"/><polygon fill="#181818" points="453,679.3894,457,670.3894,453,674.3894,449,670.3894,453,679.3894" style="stroke:#181818;stroke-width:1.0;"/><text fill="#000000" font-family="sans-serif" font-size="13" lengthAdjust="spacing" textLength="182" x="454" y="646.1045">POWER_EVT_ENTER_SLEEP</text></g><!--link sleep to off--><g id="link_sleep_off"><path d="M392.72,699.2694 C270.7,688.8294 6,657.0294 6,577.6094 C6,319.6094 6,319.6094 6,319.6094 C6,252.2694 215.2731,203.129 316.5531,183.179 " fill="none" id="sleep-to-off" style="stroke:#181818;stroke-width:1.0;"/><polygon fill="#181818" points="322.44,182.0194,312.8366,179.8342,317.5343,182.9857,314.3827,187.6833,322.44,182.0194" style="stroke:#181818;stroke-width:1.0;"/><text fill="#000000" font-family="sans-serif" font-size="13" lengthAdjust="spacing" textLength="156" x="7" y="454.1045">POWER_EVT_TURN_OFF</text></g><!--link *start* to off--><g id="link_*start*_off"><path d="M374,64.6294 C374,82.1094 374,115.0794 374,140.5794 " fill="none" id="*start*-to-off" style="stroke:#181818;stroke-width:1.0;"/><polygon fill="#181818" points="374,146.5794,378,137.5794,374,141.5794,370,137.5794,374,146.5794" style="stroke:#181818;stroke-width:1.0;"/></g><!--link off to GMN19--><g id="link_off_GMN19"><path d="M425.8,171.6094 C460.19,171.6094 494.59,171.6094 528.99,171.6094 " fill="none" id="off-GMN19" style="stroke:#181818;stroke-width:1.0;stroke-dasharray:7.0,7.0;"/></g><!--link GMN19 to GMN22--><g id="link_GMN19_GMN22"><path d="M649.96,217.9094 C662.44,244.9094 677.7,277.8894 687.38,298.8194 " fill="none" id="GMN19-GMN22" style="stroke:#181818;stroke-width:1.0;stroke-dasharray:7.0,7.0;"/></g><!--SRC=[dPJTQjim68RFTHKVFTe6xHWxAo7WE7OMbYN6TXTA24A95KV4beoiDdHZi6lPfUrA9idnJrAtR3lKzpvwzNxwKqnb509nf1Byw0j4YYWAOqPIIN8uChK79vY2IxAiHAWyC5uGevIM-uu0HcHxIALuu8ahCY470ovaJhBX49PxfgWXX4oel5H7cPxODvzAAQG6PYpTArT8abrwrCIOo4D8apuJibNiaTOk4qafltHf46DJ4xxWAcBVA7puY7xeXcsRLy5YwOLuuVjNG4eGknsqZLmmymhXq2vmJimMIpnoujWBxosQYICqBPsZxYSdd4pd4yjjzqIcZASl6aSppmiiMcQK5js8o4I-lXwQNBTGuTxN6CTtuLn7HhfiLKqzbts_ratKhjvf1HdDC4tCBbWtWgFO2MFKC3sHEkWYg1Uk6kfYtZokMqQLskErT3vx-2veihrkSvRghrTyQSlGwjsw9X3YGf-JD5THZsq9OB0PjkzEFxBRmVlDKDT___m5XH7mhimnuqozUVkidB2o86gxn_IHyZuWfGhRw_6QXZd93K1v0YRYAUX6A2NoAg9ZxXfHJ72R3qvZci3c2LQhygbKDCTReLyMuqG9UN9EgYy4coy4auBT50zv1j5zXAVZcRTU0z5h_jTyUmJQm7BbJHNJV02W1EI4dOB-kxV5mMrnSpBhTRixVm00]--></g></svg>