<svg xmlns="http://www.w3.org/2000/svg" xmlns:xlink="http://www.w3.org/1999/xlink" contentStyleType="text/css" data-diagram-type="SEQUENCE" height="1326px" preserveAspectRatio="none" style="width:944px;height:1326px;background:#FFFFFF;" version="1.1" viewBox="0 0 944 1326" width="944px" zoomAndPan="magnify"><title>Parallel State Machine API Call Sequence (Multi&#8209;Threaded)</title><defs/><g><text fill="#000000" font-family="sans-serif" font-size="14" font-weight="bold" lengthAdjust="spacing" textLength="389.5801" x="276.4248" y="29.5332">Parallel State Machine API Call Sequence (Multi&#8209;Threaded)</text><g><title>Supervisor</title><rect fill="#000000" fill-opacity="0.00000" height="1122.8984" width="8" x="37.4585" y="121.2188"/><line style="stroke:#181818;stroke-width:0.5;stroke-dasharray:5.0,5.0;" x1="41" x2="41" y1="121.2188" y2="1244.1172"/></g><g><title>Broadcast Manager</title><rect fill="#000000" fill-opacity="0.00000" height="1122.8984" width="8" x="231.29" y="121.2188"/><line style="stroke:#181818;stroke-width:0.5;stroke-dasharray:5.0,5.0;" x1="235.2007" x2="235.2007" y1="121.2188" y2="1244.1172"/></g><g><title>Component A</title><rect fill="#000000" fill-opacity="0.00000" height="1122.8984" width="8" x="537.145" y="121.2188"/><line style="stroke:#181818;stroke-width:0.5;stroke-dasharray:5.0,5.0;" x1="540.3418" x2="540.3418" y1="121.2188" y2="1244.1172"/></g><g><title>Component B</title><rect fill="#000000" fill-opacity="0.00000" height="1122.8984" width="8" x="646.7515" y="121.2188"/><line style="stroke:#181818;stroke-width:0.5;stroke-dasharray:5.0,5.0;" x1="649.9482" x2="649.9482" y1="121.2188" y2="1244.1172"/></g><g><title>Component C</title><rect fill="#000000" fill-opacity="0.00000" height="1122.8984" width="8" x="756.7441" y="121.2188"/><line style="stroke:#181818;stroke-width:0.5;stroke-dasharray:5.0,5.0;" x1="760.5547" x2="760.5547" y1="121.2188" y2="1244.1172"/></g><g><title>Parallel Machine</title><rect fill="#000000" fill-opacity="0.00000" height="1122.8984" width="8" x="875.6816" y="121.2188"/><line style="stroke:#181818;stroke-width:0.5;stroke-dasharray:5.0,5.0;" x1="878.9336" x2="878.9336" y1="121.2188" y2="1244.1172"/></g><g class="participant participant-head" data-participant="SV"><text fill="#000000" font-family="sans-serif" font-size="14" lengthAdjust="spacing" textLength="66.917" x="5" y="118.1426">Supervisor</text><ellipse cx="41.4585" cy="52.1094" fill="#E2E2F0" rx="8" ry="8" style="stroke:#181818;stroke-width:0.5;"/><path d="M41.4585,60.1094 L41.4585,87.1094 M28.4585,68.1094 L54.4585,68.1094 M41.4585,87.1094 L28.4585,102.1094 M41.4585,87.1094 L54.4585,102.1094" fill="none" style="stroke:#181818;stroke-width:0.5;"/></g><g class="participant participant-tail" data-participant="SV"><text fill="#000000" font-family="sans-serif" font-size="14" lengthAdjust="spacing" textLength="66.917" x="5" y="1257.6504">Supervisor</text><ellipse cx="41.4585" cy="1269.2266" fill="#E2E2F0" rx="8" ry="8" style="stroke:#181818;stroke-width:0.5;"/><path d="M41.4585,1277.2266 L41.4585,1304.2266 M28.4585,1285.2266 L54.4585,1285.2266 M41.4585,1304.2266 L28.4585,1319.2266 M41.4585,1304.2266 L54.4585,1319.2266" fill="none" style="stroke:#181818;stroke-width:0.5;"/></g><g class="participant participant-head" data-participant="BM"><rect fill="#E2E2F0" height="31.6094" rx="2.5" ry="2.5" style="stroke:#181818;stroke-width:0.5;" width="136.1787" x="167.2007" y="88.6094"/><text fill="#000000" font-family="sans-serif" font-size="14" lengthAdjust="spacing" textLength="122.1787" x="174.2007" y="110.1426">Broadcast Manager</text></g><g class="participant participant-tail" data-participant="BM"><rect fill="#E2E2F0" height="31.6094" rx="2.5" ry="2.5" style="stroke:#181818;stroke-width:0.5;" width="136.1787" x="167.2007" y="1243.1172"/><text fill="#000000" font-family="sans-serif" font-size="14" lengthAdjust="spacing" textLength="122.1787" x="174.2007" y="1264.6504">Broadcast Manager</text></g><g class="participant participant-head" data-participant="CA"><rect fill="#E2E2F0" height="31.6094" rx="2.5" ry="2.5" style="stroke:#181818;stroke-width:0.5;" width="99.6064" x="491.3418" y="88.6094"/><text fill="#000000" font-family="sans-serif" font-size="14" lengthAdjust="spacing" textLength="85.6064" x="498.3418" y="110.1426">Component A</text></g><g class="participant participant-tail" data-participant="CA"><rect fill="#E2E2F0" height="31.6094" rx="2.5" ry="2.5" style="stroke:#181818;stroke-width:0.5;" width="99.6064" x="491.3418" y="1243.1172"/><text fill="#000000" font-family="sans-serif" font-size="14" lengthAdjust="spacing" textLength="85.6064" x="498.3418" y="1264.6504">Component A</text></g><g class="participant participant-head" data-participant="CB"><rect fill="#E2E2F0" height="31.6094" rx="2.5" ry="2.5" style="stroke:#181818;stroke-width:0.5;" width="99.6064" x="600.9482" y="88.6094"/><text fill="#000000" font-family="sans-serif" font-size="14" lengthAdjust="spacing" textLength="85.6064" x="607.9482" y="110.1426">Component B</text></g><g class="participant participant-tail" data-participant="CB"><rect fill="#E2E2F0" height="31.6094" rx="2.5" ry="2.5" style="stroke:#181818;stroke-width:0.5;" width="99.6064" x="600.9482" y="1243.1172"/><text fill="#000000" font-family="sans-serif" font-size="14" lengthAdjust="spacing" textLength="85.6064" x="607.9482" y="1264.6504">Component B</text></g><g class="participant participant-head" data-participant="CC"><rect fill="#E2E2F0" height="31.6094" rx="2.5" ry="2.5" style="stroke:#181818;stroke-width:0.5;" width="100.3789" x="710.5547" y="88.6094"/><text fill="#000000" font-family="sans-serif" font-size="14" lengthAdjust="spacing" textLength="86.3789" x="717.5547" y="110.1426">Component C</text></g><g class="participant participant-tail" data-participant="CC"><rect fill="#E2E2F0" height="31.6094" rx="2.5" ry="2.5" style="stroke:#181818;stroke-width:0.5;" width="100.3789" x="710.5547" y="1243.1172"/><text fill="#000000" font-family="sans-serif" font-size="14" lengthAdjust="spacing" textLength="86.3789" x="717.5547" y="1264.6504">Component C</text></g><g class="participant participant-head" data-participant="PM"><rect fill="#E2E2F0" height="31.6094" rx="2.5" ry="2.5" style="stroke:#181818;stroke-width:0.5;" width="117.4961" x="820.9336" y="88.6094"/><text fill="#000000" font-family="sans-serif" font-size="14" lengthAdjust="spacing" textLength="103.4961" x="827.9336" y="110.1426">Parallel Machine</text></g><g class="participant participant-tail" data-participant="PM"><rect fill="#E2E2F0" height="31.6094" rx="2.5" ry="2.5" style="stroke:#181818;stroke-width:0.5;" width="117.4961" x="820.9336" y="1243.1172"/><text fill="#000000" font-family="sans-serif" font-size="14" lengthAdjust="spacing" textLength="103.4961" x="827.9336" y="1264.6504">Parallel Machine</text></g><g class="message" data-participant-1="SV" data-participant-2="BM"><polygon fill="#181818" points="223.29,149.5703,233.29,153.5703,223.29,157.5703,227.29,153.5703" style="stroke:#181818;stroke-width:1;"/><line style="stroke:#181818;stroke-width:1;" x1="41.4585" x2="229.29" y1="153.5703" y2="153.5703"/><text fill="#000000" font-family="sans-serif" font-size="13" lengthAdjust="spacing" textLength="130.0635" x="48.4585" y="148.7139">broadcast_event(start)</text></g><g class="message" data-participant-1="BM" data-participant-2="CA"><polygon fill="#181818" points="529.145,179.9219,539.145,183.9219,529.145,187.9219,533.145,183.9219" style="stroke:#181818;stroke-width:1;"/><line style="stroke:#181818;stroke-width:1;" x1="235.29" x2="535.145" y1="183.9219" y2="183.9219"/><text fill="#000000" font-family="sans-serif" font-size="13" lengthAdjust="spacing" textLength="242.0869" x="242.29" y="179.0654">parallel_component_dispatch_event(start)</text></g><g class="message" data-participant-1="CA" data-participant-2="CA"><line style="stroke:#181818;stroke-width:1;" x1="541.145" x2="583.145" y1="214.2734" y2="214.2734"/><line style="stroke:#181818;stroke-width:1;" x1="583.145" x2="583.145" y1="214.2734" y2="227.2734"/><line style="stroke:#181818;stroke-width:1;" x1="542.145" x2="583.145" y1="227.2734" y2="227.2734"/><polygon fill="#181818" points="552.145,223.2734,542.145,227.2734,552.145,231.2734,548.145,227.2734" style="stroke:#181818;stroke-width:1;"/><text fill="#000000" font-family="sans-serif" font-size="13" lengthAdjust="spacing" textLength="79.479" x="548.145" y="209.417">entry_action()</text></g><g class="message" data-participant-1="CA" data-participant-2="CA"><line style="stroke:#181818;stroke-width:1;" x1="541.145" x2="583.145" y1="257.625" y2="257.625"/><line style="stroke:#181818;stroke-width:1;" x1="583.145" x2="583.145" y1="257.625" y2="270.625"/><line style="stroke:#181818;stroke-width:1;" x1="542.145" x2="583.145" y1="270.625" y2="270.625"/><polygon fill="#181818" points="552.145,266.625,542.145,270.625,552.145,274.625,548.145,270.625" style="stroke:#181818;stroke-width:1;"/><text fill="#000000" font-family="sans-serif" font-size="13" lengthAdjust="spacing" textLength="65.0381" x="548.145" y="252.7686">do_action()</text></g><g class="message" data-participant-1="BM" data-participant-2="CB"><polygon fill="#181818" points="638.7515,296.9766,648.7515,300.9766,638.7515,304.9766,642.7515,300.9766" style="stroke:#181818;stroke-width:1;"/><line style="stroke:#181818;stroke-width:1;" x1="235.29" x2="644.7515" y1="300.9766" y2="300.9766"/><text fill="#000000" font-family="sans-serif" font-size="13" lengthAdjust="spacing" textLength="242.0869" x="242.29" y="296.1201">parallel_component_dispatch_event(start)</text></g><g class="message" data-participant-1="CB" data-participant-2="CB"><line style="stroke:#181818;stroke-width:1;" x1="650.7515" x2="692.7515" y1="331.3281" y2="331.3281"/><line style="stroke:#181818;stroke-width:1;" x1="692.7515" x2="692.7515" y1="331.3281" y2="344.3281"/><line style="stroke:#181818;stroke-width:1;" x1="651.7515" x2="692.7515" y1="344.3281" y2="344.3281"/><polygon fill="#181818" points="661.7515,340.3281,651.7515,344.3281,661.7515,348.3281,657.7515,344.3281" style="stroke:#181818;stroke-width:1;"/><text fill="#000000" font-family="sans-serif" font-size="13" lengthAdjust="spacing" textLength="79.479" x="657.7515" y="326.4717">entry_action()</text></g><g class="message" data-participant-1="CB" data-participant-2="CB"><line style="stroke:#181818;stroke-width:1;" x1="650.7515" x2="692.7515" y1="374.6797" y2="374.6797"/><line style="stroke:#181818;stroke-width:1;" x1="692.7515" x2="692.7515" y1="374.6797" y2="387.6797"/><line style="stroke:#181818;stroke-width:1;" x1="651.7515" x2="692.7515" y1="387.6797" y2="387.6797"/><polygon fill="#181818" points="661.7515,383.6797,651.7515,387.6797,661.7515,391.6797,657.7515,387.6797" style="stroke:#181818;stroke-width:1;"/><text fill="#000000" font-family="sans-serif" font-size="13" lengthAdjust="spacing" textLength="65.0381" x="657.7515" y="369.8232">do_action()</text></g><g class="message" data-participant-1="BM" data-participant-2="CC"><polygon fill="#181818" points="748.7441,414.0313,758.7441,418.0313,748.7441,422.0313,752.7441,418.0313" style="stroke:#181818;stroke-width:1;"/><line style="stroke:#181818;stroke-width:1;" x1="235.29" x2="754.7441" y1="418.0313" y2="418.0313"/><text fill="#000000" font-family="sans-serif" font-size="13" lengthAdjust="spacing" textLength="242.0869" x="242.29" y="413.1748">parallel_component_dispatch_event(start)</text></g><g class="message" data-participant-1="CC" data-participant-2="CC"><line style="stroke:#181818;stroke-width:1;" x1="760.7441" x2="802.7441" y1="448.3828" y2="448.3828"/><line style="stroke:#181818;stroke-width:1;" x1="802.7441" x2="802.7441" y1="448.3828" y2="461.3828"/><line style="stroke:#181818;stroke-width:1;" x1="761.7441" x2="802.7441" y1="461.3828" y2="461.3828"/><polygon fill="#181818" points="771.7441,457.3828,761.7441,461.3828,771.7441,465.3828,767.7441,461.3828" style="stroke:#181818;stroke-width:1;"/><text fill="#000000" font-family="sans-serif" font-size="13" lengthAdjust="spacing" textLength="79.479" x="767.7441" y="443.5264">entry_action()</text></g><g class="message" data-participant-1="CC" data-participant-2="CC"><line style="stroke:#181818;stroke-width:1;" x1="760.7441" x2="802.7441" y1="491.7344" y2="491.7344"/><line style="stroke:#181818;stroke-width:1;" x1="802.7441" x2="802.7441" y1="491.7344" y2="504.7344"/><line style="stroke:#181818;stroke-width:1;" x1="761.7441" x2="802.7441" y1="504.7344" y2="504.7344"/><polygon fill="#181818" points="771.7441,500.7344,761.7441,504.7344,771.7441,508.7344,767.7441,504.7344" style="stroke:#181818;stroke-width:1;"/><text fill="#000000" font-family="sans-serif" font-size="13" lengthAdjust="spacing" textLength="65.0381" x="767.7441" y="486.8779">do_action()</text></g><g class="message" data-participant-1="BM" data-participant-2="SV"><polygon fill="#181818" points="52.4585,531.0859,42.4585,535.0859,52.4585,539.0859,48.4585,535.0859" style="stroke:#181818;stroke-width:1;"/><line style="stroke:#181818;stroke-width:1;" x1="46.4585" x2="234.29" y1="535.0859" y2="535.0859"/><text fill="#000000" font-family="sans-serif" font-size="13" lengthAdjust="spacing" textLength="130.7935" x="58.4585" y="530.2295">all components started</text></g><g class="message" data-participant-1="SV" data-participant-2="BM"><polygon fill="#181818" points="223.29,561.4375,233.29,565.4375,223.29,569.4375,227.29,565.4375" style="stroke:#181818;stroke-width:1;"/><line style="stroke:#181818;stroke-width:1;" x1="41.4585" x2="229.29" y1="565.4375" y2="565.4375"/><text fill="#000000" font-family="sans-serif" font-size="13" lengthAdjust="spacing" textLength="169.8315" x="48.4585" y="560.5811">broadcast_event(data_ready)</text></g><g class="message" data-participant-1="BM" data-participant-2="CA"><polygon fill="#181818" points="529.145,591.7891,539.145,595.7891,529.145,599.7891,533.145,595.7891" style="stroke:#181818;stroke-width:1;"/><line style="stroke:#181818;stroke-width:1;" x1="235.29" x2="535.145" y1="595.7891" y2="595.7891"/><text fill="#000000" font-family="sans-serif" font-size="13" lengthAdjust="spacing" textLength="281.855" x="242.29" y="590.9326">parallel_component_dispatch_event(data_ready)</text></g><g class="message" data-participant-1="CA" data-participant-2="CA"><line style="stroke:#181818;stroke-width:1;" x1="541.145" x2="583.145" y1="626.1406" y2="626.1406"/><line style="stroke:#181818;stroke-width:1;" x1="583.145" x2="583.145" y1="626.1406" y2="639.1406"/><line style="stroke:#181818;stroke-width:1;" x1="542.145" x2="583.145" y1="639.1406" y2="639.1406"/><polygon fill="#181818" points="552.145,635.1406,542.145,639.1406,552.145,643.1406,548.145,639.1406" style="stroke:#181818;stroke-width:1;"/><text fill="#000000" font-family="sans-serif" font-size="13" lengthAdjust="spacing" textLength="65.0381" x="548.145" y="621.2842">do_action()</text></g><g class="message" data-participant-1="CA" data-participant-2="PM"><polygon fill="#181818" points="867.6816,665.4922,877.6816,669.4922,867.6816,673.4922,871.6816,669.4922" style="stroke:#181818;stroke-width:1;"/><line style="stroke:#181818;stroke-width:1;" x1="541.145" x2="873.6816" y1="669.4922" y2="669.4922"/><text fill="#000000" font-family="sans-serif" font-size="13" lengthAdjust="spacing" textLength="69.3799" x="548.145" y="664.6357">send_data()</text></g><g class="message" data-participant-1="BM" data-participant-2="CB"><polygon fill="#181818" points="638.7515,695.8438,648.7515,699.8438,638.7515,703.8438,642.7515,699.8438" style="stroke:#181818;stroke-width:1;"/><line style="stroke:#181818;stroke-width:1;" x1="235.29" x2="644.7515" y1="699.8438" y2="699.8438"/><text fill="#000000" font-family="sans-serif" font-size="13" lengthAdjust="spacing" textLength="281.855" x="242.29" y="694.9873">parallel_component_dispatch_event(data_ready)</text></g><g class="message" data-participant-1="CB" data-participant-2="CB"><line style="stroke:#181818;stroke-width:1;" x1="650.7515" x2="692.7515" y1="730.1953" y2="730.1953"/><line style="stroke:#181818;stroke-width:1;" x1="692.7515" x2="692.7515" y1="730.1953" y2="743.1953"/><line style="stroke:#181818;stroke-width:1;" x1="651.7515" x2="692.7515" y1="743.1953" y2="743.1953"/><polygon fill="#181818" points="661.7515,739.1953,651.7515,743.1953,661.7515,747.1953,657.7515,743.1953" style="stroke:#181818;stroke-width:1;"/><text fill="#000000" font-family="sans-serif" font-size="13" lengthAdjust="spacing" textLength="65.0381" x="657.7515" y="725.3389">do_action()</text></g><g class="message" data-participant-1="CB" data-participant-2="PM"><polygon fill="#181818" points="867.6816,769.5469,877.6816,773.5469,867.6816,777.5469,871.6816,773.5469" style="stroke:#181818;stroke-width:1;"/><line style="stroke:#181818;stroke-width:1;" x1="650.7515" x2="873.6816" y1="773.5469" y2="773.5469"/><text fill="#000000" font-family="sans-serif" font-size="13" lengthAdjust="spacing" textLength="69.3799" x="657.7515" y="768.6904">send_data()</text></g><g class="message" data-participant-1="BM" data-participant-2="CC"><polygon fill="#181818" points="748.7441,799.8984,758.7441,803.8984,748.7441,807.8984,752.7441,803.8984" style="stroke:#181818;stroke-width:1;"/><line style="stroke:#181818;stroke-width:1;" x1="235.29" x2="754.7441" y1="803.8984" y2="803.8984"/><text fill="#000000" font-family="sans-serif" font-size="13" lengthAdjust="spacing" textLength="281.855" x="242.29" y="799.042">parallel_component_dispatch_event(data_ready)</text></g><g class="message" data-participant-1="CC" data-participant-2="CC"><line style="stroke:#181818;stroke-width:1;" x1="760.7441" x2="802.7441" y1="834.25" y2="834.25"/><line style="stroke:#181818;stroke-width:1;" x1="802.7441" x2="802.7441" y1="834.25" y2="847.25"/><line style="stroke:#181818;stroke-width:1;" x1="761.7441" x2="802.7441" y1="847.25" y2="847.25"/><polygon fill="#181818" points="771.7441,843.25,761.7441,847.25,771.7441,851.25,767.7441,847.25" style="stroke:#181818;stroke-width:1;"/><text fill="#000000" font-family="sans-serif" font-size="13" lengthAdjust="spacing" textLength="65.0381" x="767.7441" y="829.3936">do_action()</text></g><g class="message" data-participant-1="CC" data-participant-2="PM"><polygon fill="#181818" points="867.6816,873.6016,877.6816,877.6016,867.6816,881.6016,871.6816,877.6016" style="stroke:#181818;stroke-width:1;"/><line style="stroke:#181818;stroke-width:1;" x1="760.7441" x2="873.6816" y1="877.6016" y2="877.6016"/><text fill="#000000" font-family="sans-serif" font-size="13" lengthAdjust="spacing" textLength="69.3799" x="767.7441" y="872.7451">send_data()</text></g><g class="message" data-participant-1="PM" data-participant-2="SV"><polygon fill="#181818" points="52.4585,903.9531,42.4585,907.9531,52.4585,911.9531,48.4585,907.9531" style="stroke:#181818;stroke-width:1;"/><line style="stroke:#181818;stroke-width:1;" x1="46.4585" x2="878.6816" y1="907.9531" y2="907.9531"/><text fill="#000000" font-family="sans-serif" font-size="13" lengthAdjust="spacing" textLength="80.2217" x="58.4585" y="903.0967">data collected</text></g><g class="message" data-participant-1="SV" data-participant-2="BM"><polygon fill="#181818" points="223.29,934.3047,233.29,938.3047,223.29,942.3047,227.29,938.3047" style="stroke:#181818;stroke-width:1;"/><line style="stroke:#181818;stroke-width:1;" x1="41.4585" x2="229.29" y1="938.3047" y2="938.3047"/><text fill="#000000" font-family="sans-serif" font-size="13" lengthAdjust="spacing" textLength="135.1289" x="48.4585" y="933.4482">broadcast_event(finish)</text></g><g class="message" data-participant-1="BM" data-participant-2="CA"><polygon fill="#181818" points="529.145,964.6563,539.145,968.6563,529.145,972.6563,533.145,968.6563" style="stroke:#181818;stroke-width:1;"/><line style="stroke:#181818;stroke-width:1;" x1="235.29" x2="535.145" y1="968.6563" y2="968.6563"/><text fill="#000000" font-family="sans-serif" font-size="13" lengthAdjust="spacing" textLength="247.1523" x="242.29" y="963.7998">parallel_component_dispatch_event(finish)</text></g><g class="message" data-participant-1="CA" data-participant-2="CA"><line style="stroke:#181818;stroke-width:1;" x1="541.145" x2="583.145" y1="999.0078" y2="999.0078"/><line style="stroke:#181818;stroke-width:1;" x1="583.145" x2="583.145" y1="999.0078" y2="1012.0078"/><line style="stroke:#181818;stroke-width:1;" x1="542.145" x2="583.145" y1="1012.0078" y2="1012.0078"/><polygon fill="#181818" points="552.145,1008.0078,542.145,1012.0078,552.145,1016.0078,548.145,1012.0078" style="stroke:#181818;stroke-width:1;"/><text fill="#000000" font-family="sans-serif" font-size="13" lengthAdjust="spacing" textLength="70.8081" x="548.145" y="994.1514">exit_action()</text></g><g class="message" data-participant-1="BM" data-participant-2="CB"><polygon fill="#181818" points="638.7515,1038.3594,648.7515,1042.3594,638.7515,1046.3594,642.7515,1042.3594" style="stroke:#181818;stroke-width:1;"/><line style="stroke:#181818;stroke-width:1;" x1="235.29" x2="644.7515" y1="1042.3594" y2="1042.3594"/><text fill="#000000" font-family="sans-serif" font-size="13" lengthAdjust="spacing" textLength="247.1523" x="242.29" y="1037.5029">parallel_component_dispatch_event(finish)</text></g><g class="message" data-participant-1="CB" data-participant-2="CB"><line style="stroke:#181818;stroke-width:1;" x1="650.7515" x2="692.7515" y1="1072.7109" y2="1072.7109"/><line style="stroke:#181818;stroke-width:1;" x1="692.7515" x2="692.7515" y1="1072.7109" y2="1085.7109"/><line style="stroke:#181818;stroke-width:1;" x1="651.7515" x2="692.7515" y1="1085.7109" y2="1085.7109"/><polygon fill="#181818" points="661.7515,1081.7109,651.7515,1085.7109,661.7515,1089.7109,657.7515,1085.7109" style="stroke:#181818;stroke-width:1;"/><text fill="#000000" font-family="sans-serif" font-size="13" lengthAdjust="spacing" textLength="70.8081" x="657.7515" y="1067.8545">exit_action()</text></g><g class="message" data-participant-1="BM" data-participant-2="CC"><polygon fill="#181818" points="748.7441,1112.0625,758.7441,1116.0625,748.7441,1120.0625,752.7441,1116.0625" style="stroke:#181818;stroke-width:1;"/><line style="stroke:#181818;stroke-width:1;" x1="235.29" x2="754.7441" y1="1116.0625" y2="1116.0625"/><text fill="#000000" font-family="sans-serif" font-size="13" lengthAdjust="spacing" textLength="247.1523" x="242.29" y="1111.2061">parallel_component_dispatch_event(finish)</text></g><g class="message" data-participant-1="CC" data-participant-2="CC"><line style="stroke:#181818;stroke-width:1;" x1="760.7441" x2="802.7441" y1="1146.4141" y2="1146.4141"/><line style="stroke:#181818;stroke-width:1;" x1="802.7441" x2="802.7441" y1="1146.4141" y2="1159.4141"/><line style="stroke:#181818;stroke-width:1;" x1="761.7441" x2="802.7441" y1="1159.4141" y2="1159.4141"/><polygon fill="#181818" points="771.7441,1155.4141,761.7441,1159.4141,771.7441,1163.4141,767.7441,1159.4141" style="stroke:#181818;stroke-width:1;"/><text fill="#000000" font-family="sans-serif" font-size="13" lengthAdjust="spacing" textLength="70.8081" x="767.7441" y="1141.5576">exit_action()</text></g><g class="message" data-participant-1="BM" data-participant-2="SV"><polygon fill="#181818" points="52.4585,1185.7656,42.4585,1189.7656,52.4585,1193.7656,48.4585,1189.7656" style="stroke:#181818;stroke-width:1;"/><line style="stroke:#181818;stroke-width:1;" x1="46.4585" x2="234.29" y1="1189.7656" y2="1189.7656"/><text fill="#000000" font-family="sans-serif" font-size="13" lengthAdjust="spacing" textLength="135.8589" x="58.4585" y="1184.9092">all components finished</text></g><path d="M488,1202.7656 L488,1228.7656 L813,1228.7656 L813,1212.7656 L803,1202.7656 L488,1202.7656" fill="#FEFFDD" style="stroke:#181818;stroke-width:0.5;"/><path d="M803,1202.7656 L803,1212.7656 L813,1212.7656 L803,1202.7656" fill="#FEFFDD" style="stroke:#181818;stroke-width:0.5;"/><text fill="#000000" font-family="sans-serif" font-size="13" lengthAdjust="spacing" textLength="304.2178" x="494" y="1221.2607">Parallel execution with synchronization via broadcast</text><!--SRC=[dLJBJiCm4BpdArOzjHByG0z8ZKyS8aKAwZLQx8LO2dQmtT9ouXVuHRw4JTBcKL9Gk5apEpFsQEMWGqcGeiEof1AoW84WGLbeGx19xq4m0HczxiX8WcMoAuF- -lXyA1oX8hMA8fJ1EbXakuhSNdlh5e0UicrKeGjQwWfDW4NiB2g9Fh2xmMTgf-9aF2NiIsKDyN7Jy69pZOzRFhx6YvONOxvxwEc9pL2QH56sXTixlWwiuV5yqvpsxBJqWHrM4NCy8JOyKPrSSdcEovNs5GPPZ3KyVTOmweuvTwMjMOuOPNlu51BF2eaxpML8pqo4Y5aXejDSXlJCpn2kTGtr1dN-7Xf7KhzshZ1WNc_OSMRnG-6LZbiuhMCz6PNNahdLZsAcMsxXQp5YVinqpoty8oRjwwyHxf-Jv5-rFscZVJ6pyhDekEm77Vwvr9tROAkdtCGyjy7wJhXDhMahhGipblz4koV7ZxjfFBflX0uaTxKLlEbGW3yQMJXhz3isu5vZtt7q3G00]--></g></svg>